<svg width="1310" height="1581" viewBox="0 0 1310 1581" class="keymap" xmlns="http://www.w3.org/2000/svg" xmlns:xlink="http://www.w3.org/1999/xlink">
<defs>/* start glyphs */
<svg id="mdi:apple-keyboard-caps">
<svg xmlns="http://www.w3.org/2000/svg" id="mdi-apple-keyboard-caps" viewBox="0 0 24 24"><path d="M15,14V8H17.17L12,2.83L6.83,8H9V14H15M12,0L22,10H17V16H7V10H2L12,0M7,18H17V24H7V18M15,20H9V22H15V20Z" /></svg>
</svg>
<svg id="mdi:apple-keyboard-shift">
<svg xmlns="http://www.w3.org/2000/svg" id="mdi-apple-keyboard-shift" viewBox="0 0 24 24"><path d="M15,18V12H17.17L12,6.83L6.83,12H9V18H15M12,4L22,14H17V20H7V14H2L12,4Z" /></svg>
</svg>
<svg id="mdi:arrow-down-bold">
<svg xmlns="http://www.w3.org/2000/svg" id="mdi-arrow-down-bold" viewBox="0 0 24 24"><path d="M9,4H15V12H19.84L12,19.84L4.16,12H9V4Z" /></svg>
</svg>
<svg id="mdi:arrow-left-bold">
<svg xmlns="http://www.w3.org/2000/svg" id="mdi-arrow-left-bold" viewBox="0 0 24 24"><path d="M20,9V15H12V19.84L4.16,12L12,4.16V9H20Z" /></svg>
</svg>
<svg id="mdi:arrow-right-bold">
<svg xmlns="http://www.w3.org/2000/svg" id="mdi-arrow-right-bold" viewBox="0 0 24 24"><path d="M4,15V9H12V4.16L19.84,12L12,19.84V15H4Z" /></svg>
</svg>
<svg id="mdi:arrow-up-bold">
<svg xmlns="http://www.w3.org/2000/svg" id="mdi-arrow-up-bold" viewBox="0 0 24 24"><path d="M15,20H9V12H4.16L12,4.16L19.84,12H15V20Z" /></svg>
</svg>
<svg id="mdi:backspace">
<svg xmlns="http://www.w3.org/2000/svg" id="mdi-backspace" viewBox="0 0 24 24"><path d="M22,3H7C6.31,3 5.77,3.35 5.41,3.88L0,12L5.41,20.11C5.77,20.64 6.31,21 7,21H22A2,2 0 0,0 24,19V5A2,2 0 0,0 22,3M19,15.59L17.59,17L14,13.41L10.41,17L9,15.59L12.59,12L9,8.41L10.41,7L14,10.59L17.59,7L19,8.41L15.41,12" /></svg>
</svg>
<svg id="mdi:backspace-outline">
<svg xmlns="http://www.w3.org/2000/svg" id="mdi-backspace-outline" viewBox="0 0 24 24"><path d="M19,15.59L17.59,17L14,13.41L10.41,17L9,15.59L12.59,12L9,8.41L10.41,7L14,10.59L17.59,7L19,8.41L15.41,12L19,15.59M22,3A2,2 0 0,1 24,5V19A2,2 0 0,1 22,21H7C6.31,21 5.77,20.64 5.41,20.11L0,12L5.41,3.88C5.77,3.35 6.31,3 7,3H22M22,5H7L2.28,12L7,19H22V5Z" /></svg>
</svg>
<svg id="mdi:backspace-reverse-outline">
<svg xmlns="http://www.w3.org/2000/svg" id="mdi-backspace-reverse-outline" viewBox="0 0 24 24"><path d="M5,15.59L6.41,17L10,13.41L13.59,17L15,15.59L11.41,12L15,8.41L13.59,7L10,10.59L6.41,7L5,8.41L8.59,12L5,15.59M2,3A2,2 0 0,0 0,5V19A2,2 0 0,0 2,21H17C17.69,21 18.23,20.64 18.59,20.11L24,12L18.59,3.88C18.23,3.35 17.69,3 17,3H2M2,5H17L21.72,12L17,19H2V5Z" /></svg>
</svg>
<svg id="mdi:brightness-6">
<svg xmlns="http://www.w3.org/2000/svg" id="mdi-brightness-6" viewBox="0 0 24 24"><path d="M12,18V6A6,6 0 0,1 18,12A6,6 0 0,1 12,18M20,15.31L23.31,12L20,8.69V4H15.31L12,0.69L8.69,4H4V8.69L0.69,12L4,15.31V20H8.69L12,23.31L15.31,20H20V15.31Z" /></svg>
</svg>
<svg id="mdi:chevron-double-down">
<svg xmlns="http://www.w3.org/2000/svg" id="mdi-chevron-double-down" viewBox="0 0 24 24"><path d="M16.59,5.59L18,7L12,13L6,7L7.41,5.59L12,10.17L16.59,5.59M16.59,11.59L18,13L12,19L6,13L7.41,11.59L12,16.17L16.59,11.59Z" /></svg>
</svg>
<svg id="mdi:chevron-double-up">
<svg xmlns="http://www.w3.org/2000/svg" id="mdi-chevron-double-up" viewBox="0 0 24 24"><path d="M7.41,18.41L6,17L12,11L18,17L16.59,18.41L12,13.83L7.41,18.41M7.41,12.41L6,11L12,5L18,11L16.59,12.41L12,7.83L7.41,12.41Z" /></svg>
</svg>
<svg id="mdi:keyboard-return">
<svg xmlns="http://www.w3.org/2000/svg" id="mdi-keyboard-return" viewBox="0 0 24 24"><path d="M19,7V11H5.83L9.41,7.41L8,6L2,12L8,18L9.41,16.58L5.83,13H21V7H19Z" /></svg>
</svg>
<svg id="mdi:keyboard-space">
<svg xmlns="http://www.w3.org/2000/svg" id="mdi-keyboard-space" viewBox="0 0 24 24"><path d="M3 15H5V19H19V15H21V19C21 20.1 20.1 21 19 21H5C3.9 21 3 20.1 3 19V15Z" /></svg>
</svg>
<svg id="mdi:keyboard-tab">
<svg xmlns="http://www.w3.org/2000/svg" id="mdi-keyboard-tab" viewBox="0 0 24 24"><path d="M20,18H22V6H20M11.59,7.41L15.17,11H1V13H15.17L11.59,16.58L13,18L19,12L13,6L11.59,7.41Z" /></svg>
</svg>
<svg id="mdi:lock">
<svg xmlns="http://www.w3.org/2000/svg" id="mdi-lock" viewBox="0 0 24 24"><path d="M12,17A2,2 0 0,0 14,15C14,13.89 13.1,13 12,13A2,2 0 0,0 10,15A2,2 0 0,0 12,17M18,8A2,2 0 0,1 20,10V20A2,2 0 0,1 18,22H6A2,2 0 0,1 4,20V10C4,8.89 4.9,8 6,8H7V6A5,5 0 0,1 12,1A5,5 0 0,1 17,6V8H18M12,3A3,3 0 0,0 9,6V8H15V6A3,3 0 0,0 12,3Z" /></svg>
</svg>
<svg id="mdi:microsoft-windows">
<svg xmlns="http://www.w3.org/2000/svg" id="mdi-microsoft-windows" viewBox="0 0 24 24"><path d="M3,12V6.75L9,5.43V11.91L3,12M20,3V11.75L10,11.9V5.21L20,3M3,13L9,13.09V19.9L3,18.75V13M20,13.25V22L10,20.09V13.1L20,13.25Z" /></svg>
</svg>
<svg id="mdi:mouse-left-click">
<svg xmlns="http://www.w3.org/2000/svg" id="mdi-mouse-left-click" viewBox="0 0 24 24"><path d="M13 9V1.07C16.94 1.56 20 4.92 20 9H13M6.34 20.66C4.84 19.16 4 17.12 4 15V11H20V15C20 17.12 19.16 19.16 17.66 20.66C16.16 22.16 14.12 23 12 23C9.88 23 7.84 22.16 6.34 20.66M11 9V1.07C10.3 1.16 9.63 1.33 9 1.59C6.67 2.53 4.89 4.53 4.25 7C4.09 7.64 4 8.31 4 9H11M6.34 7C6.82 5.65 7.78 4.5 9 3.81V7H6.34Z" /></svg>
</svg>
<svg id="mdi:mouse-right-click">
<svg xmlns="http://www.w3.org/2000/svg" id="mdi-mouse-right-click" viewBox="0 0 24 24"><path d="M13 9V1.07C13.7 1.16 14.37 1.33 15 1.59C17.33 2.53 19.11 4.53 19.75 7C19.91 7.64 20 8.31 20 9H13M17.66 7C17.18 5.65 16.23 4.5 15 3.81V7H17.66M11 9V1.07C7.06 1.56 4 4.92 4 9H11M6.34 20.66C4.84 19.16 4 17.12 4 15V11H20V15C20 17.12 19.16 19.16 17.66 20.66C16.16 22.16 14.12 23 12 23C9.88 23 7.84 22.16 6.34 20.66Z" /></svg>
</svg>
<svg id="mdi:printer">
<svg xmlns="http://www.w3.org/2000/svg" id="mdi-printer" viewBox="0 0 24 24"><path d="M18,3H6V7H18M19,12A1,1 0 0,1 18,11A1,1 0 0,1 19,10A1,1 0 0,1 20,11A1,1 0 0,1 19,12M16,19H8V14H16M19,8H5A3,3 0 0,0 2,11V17H6V21H18V17H22V11A3,3 0 0,0 19,8Z" /></svg>
</svg>
<svg id="mdi:star">
<svg xmlns="http://www.w3.org/2000/svg" id="mdi-star" viewBox="0 0 24 24"><path d="M12,17.27L18.18,21L16.54,13.97L22,9.24L14.81,8.62L12,2L9.19,8.62L2,9.24L7.45,13.97L5.82,21L12,17.27Z" /></svg>
</svg>
</defs>/* end glyphs */
<style>/* inherit to force styles through use tags */
svg path {
    fill: inherit;
}

/* font and background color specifications */
svg.keymap {
    /*
     * ====================
     * Theme Variables
     * ====================
     */

    --logo-path: none;
    --logo-size: 12%;
    --logo-position: 49.5% 5%;

    /* === Colors === */

    --color--trans--bg: transparent;
    --color--trans--border: var(--color--material--purple-0);
    --color--trans--text--tap: var(--color--trans--border);
    --color--trans--text--shifted: var(--color--trans--text--tap);
    --color--trans--text--hold: var(--color--trans--text--tap);

    /* from acasppuccin, darkest to lightest */
    --background-secondary: rgb(24, 24, 37);
    --background-primary: rgb(30, 30, 46);
    --divider-color: rgb(49, 50, 68);
    --background-modifier-active: rgb(35, 28, 60);
    --color-accent: rgb(138, 92, 245);
    --ctp-mauve: rgb(203, 166, 247);
    --highlight: rgb(42, 40, 60);
    --text-normal: rgb(198, 208, 245);


    /*
     * ====================
     * /End Theme Variables
     * ====================
     */

    font-family: Rubik Medium,SFMono-Regular,Consolas,Liberation Mono,Menlo,monospace;
    font-size: 24px;
    font-kerning: normal;
    text-rendering: optimizeLegibility;
    fill: var(--text-normal);
    background-color: var(--background-primary);
    background-image: var(--logo-path);
    background-repeat: no-repeat;
    background-position: var(--logo-position);
    background-size: var(--logo-size) auto;
}

rect,
path {
  shape-rendering: geometricPrecision;
}

text {
    text-anchor: middle;
    dominant-baseline: middle;
    line-height: 1;

}

/* Layer labels */
text.label {
    text-anchor: start;
    paint-order: stroke;
    fill: var(--ctp-mauve);
    dominant-baseline: text-before-edge;
    font-size: 28px;
}

/* Keys */
rect.key {
    fill: var(--background-secondary);
    stroke: var(--divider-color);
    stroke-width: 1;
}
.tap {
    fill: var(--color-accent);
}
.hold {
    fill: var(--color-accent);
    opacity: 0.75
}
/* styling for combo tap, and key hold/shifted label text */
text.combo, text.hold, text.shifted {
    font-size: 20px;
}

text.hold {
    text-anchor: auto;
    dominant-baseline: auto;
}

/*
 * Combos
 */
rect.combo, rect.combo-separate {
    fill: var(--background-modifier-active);
    stroke: var(--highlight);
    stroke-width: 1;
}
path.combo {
    stroke-width: 1;
    stroke: var(--divider-color);
    stroke-dasharray: 2, 2;
    fill: none;
}
.combo.tap {
    font-size: 16px;
}

/*
 * Transparent Keys
 */
.trans {
  opacity: 0.4;
}
.trans {
    --color--key--bg: var(--color--trans--bg);
    --color--key--border: var(--color--trans--border);
    --color--key--text--tap: var(--color--trans--text--tap);
    --color--key--text--shifted: var(--color--trans--text--shifted);
    --color--key--text--hold: var(--color--trans--text--hold);
}

/*
 * Hide unintended keys
 */

.keypos-36,
.keypos-37,
.keypos-42,
.keypos-43 {
   opacity:0
}</style>
<g transform="translate(55, 0)" class="layer-Base">
<text x="0" y="12" class="label">Base</text>
<g transform="translate(0, 25)">
<g transform="translate(40, 70)" class="key keypos-0">
<rect rx="4" ry="4" x="-38" y="-38" width="77" height="77" class="key"/>
<use href="#mdi:keyboard-tab" xlink:href="#mdi:keyboard-tab" x="-14" y="-14" height="28" width="28.0" class="key tap glyph mdi:keyboard-tab"/>
</g>
<g transform="translate(120, 70)" class="key keypos-1">
<rect rx="4" ry="4" x="-38" y="-38" width="77" height="77" class="key"/>
<text x="0" y="0" class="key tap">W</text>
</g>
<g transform="translate(200, 50)" class="key keypos-2">
<rect rx="4" ry="4" x="-38" y="-38" width="77" height="77" class="key"/>
<text x="0" y="0" class="key tap">C</text>
</g>
<g transform="translate(280, 40)" class="key keypos-3">
<rect rx="4" ry="4" x="-38" y="-38" width="77" height="77" class="key"/>
<text x="0" y="0" class="key tap">M</text>
</g>
<g transform="translate(360, 50)" class="key keypos-4">
<rect rx="4" ry="4" x="-38" y="-38" width="77" height="77" class="key"/>
<text x="0" y="0" class="key tap">P</text>
</g>
<g transform="translate(440, 60)" class="key keypos-5">
<rect rx="4" ry="4" x="-38" y="-38" width="77" height="77" class="key"/>
<text x="0" y="0" class="key tap">B</text>
</g>
<g transform="translate(760, 60)" class="key keypos-6">
<rect rx="4" ry="4" x="-38" y="-38" width="77" height="77" class="key"/>
<text x="0" y="0" class="key tap">X</text>
</g>
<g transform="translate(840, 50)" class="key keypos-7">
<rect rx="4" ry="4" x="-38" y="-38" width="77" height="77" class="key"/>
<text x="0" y="0" class="key tap">L</text>
</g>
<g transform="translate(920, 40)" class="key keypos-8">
<rect rx="4" ry="4" x="-38" y="-38" width="77" height="77" class="key"/>
<text x="0" y="0" class="key tap">O</text>
</g>
<g transform="translate(1000, 50)" class="key keypos-9">
<rect rx="4" ry="4" x="-38" y="-38" width="77" height="77" class="key"/>
<text x="0" y="0" class="key tap">U</text>
</g>
<g transform="translate(1080, 70)" class="key keypos-10">
<rect rx="4" ry="4" x="-38" y="-38" width="77" height="77" class="key"/>
<text x="0" y="0" class="key tap">J</text>
</g>
<g transform="translate(1160, 70)" class="key keypos-11">
<rect rx="4" ry="4" x="-38" y="-38" width="77" height="77" class="key"/>
<text x="0" y="0" class="key tap">-</text>
</g>
<g transform="translate(40, 150)" class="key keypos-12">
<rect rx="4" ry="4" x="-38" y="-38" width="77" height="77" class="key"/>
<use href="#mdi:backspace-outline" xlink:href="#mdi:backspace-outline" x="-14" y="-14" height="28" width="28.0" class="key tap glyph mdi:backspace-outline"/>
</g>
<g transform="translate(120, 150)" class="key keypos-13">
<rect rx="4" ry="4" x="-38" y="-38" width="77" height="77" class="key"/>
<text x="0" y="0" class="key tap">R</text>
</g>
<g transform="translate(200, 130)" class="key keypos-14">
<rect rx="4" ry="4" x="-38" y="-38" width="77" height="77" class="key"/>
<text x="0" y="0" class="key tap">S</text>
</g>
<g transform="translate(280, 120)" class="key keypos-15">
<rect rx="4" ry="4" x="-38" y="-38" width="77" height="77" class="key"/>
<text x="0" y="0" class="key tap">T</text>
</g>
<g transform="translate(360, 130)" class="key keypos-16">
<rect rx="4" ry="4" x="-38" y="-38" width="77" height="77" class="key"/>
<text x="0" y="0" class="key tap">H</text>
</g>
<g transform="translate(440, 140)" class="key keypos-17">
<rect rx="4" ry="4" x="-38" y="-38" width="77" height="77" class="key"/>
<text x="0" y="0" class="key tap">F</text>
</g>
<g transform="translate(760, 140)" class="key keypos-18">
<rect rx="4" ry="4" x="-38" y="-38" width="77" height="77" class="key"/>
<text x="0" y="0" class="key tap">Y</text>
</g>
<g transform="translate(840, 130)" class="key keypos-19">
<rect rx="4" ry="4" x="-38" y="-38" width="77" height="77" class="key"/>
<text x="0" y="0" class="key tap">N</text>
</g>
<g transform="translate(920, 120)" class="key keypos-20">
<rect rx="4" ry="4" x="-38" y="-38" width="77" height="77" class="key"/>
<text x="0" y="0" class="key tap">A</text>
</g>
<g transform="translate(1000, 130)" class="key keypos-21">
<rect rx="4" ry="4" x="-38" y="-38" width="77" height="77" class="key"/>
<text x="0" y="0" class="key tap">E</text>
</g>
<g transform="translate(1080, 150)" class="key keypos-22">
<rect rx="4" ry="4" x="-38" y="-38" width="77" height="77" class="key"/>
<text x="0" y="0" class="key tap">I</text>
</g>
<g transform="translate(1160, 150)" class="key keypos-23">
<rect rx="4" ry="4" x="-38" y="-38" width="77" height="77" class="key"/>
<text x="0" y="0" class="key tap">,</text>
</g>
<g transform="translate(40, 230)" class="key keypos-24">
<rect rx="4" ry="4" x="-38" y="-38" width="77" height="77" class="key"/>
<text x="0" y="0" class="key tap"><tspan style="font-size: 75%">Ctrl</tspan></text>
</g>
<g transform="translate(120, 230)" class="key keypos-25">
<rect rx="4" ry="4" x="-38" y="-38" width="77" height="77" class="key"/>
<text x="0" y="0" class="key tap">Q</text>
</g>
<g transform="translate(200, 210)" class="key keypos-26">
<rect rx="4" ry="4" x="-38" y="-38" width="77" height="77" class="key"/>
<text x="0" y="0" class="key tap">V</text>
</g>
<g transform="translate(280, 200)" class="key keypos-27">
<rect rx="4" ry="4" x="-38" y="-38" width="77" height="77" class="key"/>
<text x="0" y="0" class="key tap">G</text>
</g>
<g transform="translate(360, 210)" class="key keypos-28">
<rect rx="4" ry="4" x="-38" y="-38" width="77" height="77" class="key"/>
<text x="0" y="0" class="key tap">D</text>
</g>
<g transform="translate(440, 220)" class="key keypos-29">
<rect rx="4" ry="4" x="-38" y="-38" width="77" height="77" class="key"/>
<text x="0" y="0" class="key tap">K</text>
</g>
<g transform="translate(760, 220)" class="key keypos-30">
<rect rx="4" ry="4" x="-38" y="-38" width="77" height="77" class="key"/>
<text x="0" y="0" class="key tap">Z</text>
</g>
<g transform="translate(840, 210)" class="key keypos-31">
<rect rx="4" ry="4" x="-38" y="-38" width="77" height="77" class="key"/>
<use href="#mdi:star" xlink:href="#mdi:star" x="-14" y="-14" height="28" width="28.0" class="key tap glyph mdi:star"/>
</g>
<g transform="translate(920, 200)" class="key keypos-32">
<rect rx="4" ry="4" x="-38" y="-38" width="77" height="77" class="key"/>
<text x="0" y="0" class="key tap">.</text>
</g>
<g transform="translate(1000, 210)" class="key keypos-33">
<rect rx="4" ry="4" x="-38" y="-38" width="77" height="77" class="key"/>
<text x="0" y="0" class="key tap">&#x27;</text>
</g>
<g transform="translate(1080, 230)" class="key keypos-34">
<rect rx="4" ry="4" x="-38" y="-38" width="77" height="77" class="key"/>
<text x="0" y="0" class="key tap">;</text>
</g>
<g transform="translate(1160, 230)" class="key keypos-35">
<rect rx="4" ry="4" x="-38" y="-38" width="77" height="77" class="key"/>
<use href="#mdi:keyboard-return" xlink:href="#mdi:keyboard-return" x="-14" y="-14" height="28" width="28.0" class="key tap glyph mdi:keyboard-return"/>
</g>
<g transform="translate(280, 288)" class="key keypos-36">
<rect rx="4" ry="4" x="-38" y="-38" width="77" height="77" class="key"/>
</g>
<g transform="translate(360, 300)" class="key keypos-37">
<rect rx="4" ry="4" x="-38" y="-38" width="77" height="77" class="key"/>
</g>
<g transform="translate(440, 312)" class="key keypos-38">
<rect rx="4" ry="4" x="-38" y="-38" width="77" height="77" class="key"/>
<use href="#mdi:keyboard-space" xlink:href="#mdi:keyboard-space" x="-14" y="-14" height="28" width="28.0" class="key tap glyph mdi:keyboard-space"/>
</g>
<g transform="translate(520, 324)" class="key keypos-39">
<rect rx="4" ry="4" x="-38" y="-38" width="77" height="77" class="key"/>
<text x="0" y="0" class="key tap"><tspan style="font-size: 75%">Sym‎</tspan></text>
</g>
<g transform="translate(680, 324)" class="key keypos-40">
<rect rx="4" ry="4" x="-38" y="-38" width="77" height="77" class="key"/>
<use href="#mdi:backspace" xlink:href="#mdi:backspace" x="-14" y="-14" height="28" width="28.0" class="key tap glyph mdi:backspace"/>
</g>
<g transform="translate(760, 312)" class="key keypos-41">
<rect rx="4" ry="4" x="-38" y="-38" width="77" height="77" class="key"/>
<use href="#mdi:apple-keyboard-shift" xlink:href="#mdi:apple-keyboard-shift" x="-14" y="-14" height="28" width="28.0" class="key tap glyph mdi:apple-keyboard-shift"/>
</g>
<g transform="translate(840, 300)" class="key keypos-42">
<rect rx="4" ry="4" x="-38" y="-38" width="77" height="77" class="key"/>
</g>
<g transform="translate(920, 288)" class="key keypos-43">
<rect rx="4" ry="4" x="-38" y="-38" width="77" height="77" class="key"/>
</g>
<g class="combo combopos-0">
<rect rx="4" ry="4" x="102" y="92" width="36" height="36" class="combo"/>
<text x="120" y="110" class="combo tap">&lt;</text>
</g>
<g class="combo combopos-1">
<rect rx="4" ry="4" x="182" y="72" width="36" height="36" class="combo"/>
<text x="200" y="90" class="combo tap">[</text>
</g>
<g class="combo combopos-2">
<rect rx="4" ry="4" x="262" y="62" width="36" height="36" class="combo"/>
<text x="280" y="80" class="combo tap">{</text>
</g>
<g class="combo combopos-3">
<rect rx="4" ry="4" x="342" y="72" width="36" height="36" class="combo"/>
<text x="360" y="90" class="combo tap">(</text>
</g>
<g class="combo combopos-4">
<rect rx="4" ry="4" x="822" y="72" width="36" height="36" class="combo"/>
<text x="840" y="90" class="combo tap">)</text>
</g>
<g class="combo combopos-5">
<rect rx="4" ry="4" x="902" y="62" width="36" height="36" class="combo"/>
<text x="920" y="80" class="combo tap">}</text>
</g>
<g class="combo combopos-6">
<rect rx="4" ry="4" x="982" y="72" width="36" height="36" class="combo"/>
<text x="1000" y="90" class="combo tap">]</text>
</g>
<g class="combo combopos-7">
<rect rx="4" ry="4" x="1062" y="92" width="36" height="36" class="combo"/>
<text x="1080" y="110" class="combo tap">&gt;</text>
</g>
<g class="combo combopos-8">
<rect rx="4" ry="4" x="342" y="152" width="36" height="36" class="combo"/>
<use href="#mdi:microsoft-windows" xlink:href="#mdi:microsoft-windows" x="346" y="156" height="28" width="28.0" class="combo tap glyph mdi:microsoft-windows"/>
</g>
<g class="combo combopos-9">
<rect rx="4" ry="4" x="822" y="152" width="36" height="36" class="combo"/>
<text x="840" y="170" class="combo tap">Alt</text>
</g>
<g class="combo combopos-10">
<rect rx="4" ry="4" x="462" y="300" width="36" height="36" class="combo"/>
<text x="480" y="318" class="combo tap">Nav</text>
</g>
</g>
</g>
<g transform="translate(55, 389)" class="layer-Sym">
<text x="0" y="12" class="label">Sym</text>
<g transform="translate(0, 25)">
<g transform="translate(40, 70)" class="key keypos-0">
<rect rx="4" ry="4" x="-38" y="-38" width="77" height="77" class="key"/>
<text x="0" y="0" class="key tap"><tspan style="font-size: 75%">Esc‎</tspan></text>
</g>
<g transform="translate(120, 70)" class="key keypos-1">
<rect rx="4" ry="4" x="-38" y="-38" width="77" height="77" class="key"/>
<text x="0" y="0" class="key tap">!</text>
</g>
<g transform="translate(200, 50)" class="key keypos-2">
<rect rx="4" ry="4" x="-38" y="-38" width="77" height="77" class="key"/>
<text x="0" y="0" class="key tap">@</text>
</g>
<g transform="translate(280, 40)" class="key keypos-3">
<rect rx="4" ry="4" x="-38" y="-38" width="77" height="77" class="key"/>
<text x="0" y="0" class="key tap">#</text>
</g>
<g transform="translate(360, 50)" class="key keypos-4">
<rect rx="4" ry="4" x="-38" y="-38" width="77" height="77" class="key"/>
<text x="0" y="0" class="key tap">$</text>
</g>
<g transform="translate(440, 60)" class="key keypos-5">
<rect rx="4" ry="4" x="-38" y="-38" width="77" height="77" class="key"/>
<text x="0" y="0" class="key tap">%</text>
</g>
<g transform="translate(760, 60)" class="key keypos-6">
<rect rx="4" ry="4" x="-38" y="-38" width="77" height="77" class="key"/>
<text x="0" y="0" class="key tap">^</text>
</g>
<g transform="translate(840, 50)" class="key keypos-7">
<rect rx="4" ry="4" x="-38" y="-38" width="77" height="77" class="key"/>
<text x="0" y="0" class="key tap">&amp;</text>
</g>
<g transform="translate(920, 40)" class="key keypos-8">
<rect rx="4" ry="4" x="-38" y="-38" width="77" height="77" class="key"/>
<text x="0" y="0" class="key tap">*</text>
</g>
<g transform="translate(1000, 50)" class="key keypos-9">
<rect rx="4" ry="4" x="-38" y="-38" width="77" height="77" class="key"/>
<text x="0" y="0" class="key tap">/</text>
</g>
<g transform="translate(1080, 70)" class="key keypos-10">
<rect rx="4" ry="4" x="-38" y="-38" width="77" height="77" class="key"/>
<text x="0" y="0" class="key tap">?</text>
</g>
<g transform="translate(1160, 70)" class="key keypos-11">
<rect rx="4" ry="4" x="-38" y="-38" width="77" height="77" class="key"/>
<text x="0" y="0" class="key tap">~</text>
</g>
<g transform="translate(40, 150)" class="key keypos-12">
<rect rx="4" ry="4" x="-38" y="-38" width="77" height="77" class="key"/>
<use href="#mdi:backspace-outline" xlink:href="#mdi:backspace-outline" x="-14" y="-14" height="28" width="28.0" class="key tap glyph mdi:backspace-outline"/>
</g>
<g transform="translate(120, 150)" class="key keypos-13">
<rect rx="4" ry="4" x="-38" y="-38" width="77" height="77" class="key"/>
<text x="0" y="0" class="key tap">1</text>
</g>
<g transform="translate(200, 130)" class="key keypos-14">
<rect rx="4" ry="4" x="-38" y="-38" width="77" height="77" class="key"/>
<text x="0" y="0" class="key tap">2</text>
</g>
<g transform="translate(280, 120)" class="key keypos-15">
<rect rx="4" ry="4" x="-38" y="-38" width="77" height="77" class="key"/>
<text x="0" y="0" class="key tap">3</text>
</g>
<g transform="translate(360, 130)" class="key keypos-16">
<rect rx="4" ry="4" x="-38" y="-38" width="77" height="77" class="key"/>
<text x="0" y="0" class="key tap">4</text>
</g>
<g transform="translate(440, 140)" class="key keypos-17">
<rect rx="4" ry="4" x="-38" y="-38" width="77" height="77" class="key"/>
<text x="0" y="0" class="key tap">5</text>
</g>
<g transform="translate(760, 140)" class="key keypos-18">
<rect rx="4" ry="4" x="-38" y="-38" width="77" height="77" class="key"/>
<text x="0" y="0" class="key tap">6</text>
</g>
<g transform="translate(840, 130)" class="key keypos-19">
<rect rx="4" ry="4" x="-38" y="-38" width="77" height="77" class="key"/>
<text x="0" y="0" class="key tap">7</text>
</g>
<g transform="translate(920, 120)" class="key keypos-20">
<rect rx="4" ry="4" x="-38" y="-38" width="77" height="77" class="key"/>
<text x="0" y="0" class="key tap">8</text>
</g>
<g transform="translate(1000, 130)" class="key keypos-21">
<rect rx="4" ry="4" x="-38" y="-38" width="77" height="77" class="key"/>
<text x="0" y="0" class="key tap">9</text>
</g>
<g transform="translate(1080, 150)" class="key keypos-22">
<rect rx="4" ry="4" x="-38" y="-38" width="77" height="77" class="key"/>
<text x="0" y="0" class="key tap">0</text>
</g>
<g transform="translate(1160, 150)" class="key keypos-23">
<rect rx="4" ry="4" x="-38" y="-38" width="77" height="77" class="key"/>
<text x="0" y="0" class="key tap">`</text>
</g>
<g transform="translate(40, 230)" class="key keypos-24">
<rect rx="4" ry="4" x="-38" y="-38" width="77" height="77" class="key"/>
<use href="#mdi:backspace-reverse-outline" xlink:href="#mdi:backspace-reverse-outline" x="-14" y="-14" height="28" width="28.0" class="key tap glyph mdi:backspace-reverse-outline"/>
</g>
<g transform="translate(120, 230)" class="key keypos-25">
<rect rx="4" ry="4" x="-38" y="-38" width="77" height="77" class="key"/>
<use href="#mdi:chevron-double-down" xlink:href="#mdi:chevron-double-down" x="-14" y="-14" height="28" width="28.0" class="key tap glyph mdi:chevron-double-down"/>
</g>
<g transform="translate(200, 210)" class="key keypos-26">
<rect rx="4" ry="4" x="-38" y="-38" width="77" height="77" class="key"/>
<use href="#mdi:chevron-double-up" xlink:href="#mdi:chevron-double-up" x="-14" y="-14" height="28" width="28.0" class="key tap glyph mdi:chevron-double-up"/>
</g>
<g transform="translate(280, 200)" class="key keypos-27">
<rect rx="4" ry="4" x="-38" y="-38" width="77" height="77" class="key"/>
<use href="#mdi:mouse-right-click" xlink:href="#mdi:mouse-right-click" x="-14" y="-14" height="28" width="28.0" class="key tap glyph mdi:mouse-right-click"/>
</g>
<g transform="translate(360, 210)" class="key keypos-28">
<rect rx="4" ry="4" x="-38" y="-38" width="77" height="77" class="key"/>
<use href="#mdi:mouse-left-click" xlink:href="#mdi:mouse-left-click" x="-14" y="-14" height="28" width="28.0" class="key tap glyph mdi:mouse-left-click"/>
</g>
<g transform="translate(440, 220)" class="key keypos-29">
<rect rx="4" ry="4" x="-38" y="-38" width="77" height="77" class="key"/>
<use href="#mdi:lock" xlink:href="#mdi:lock" x="-14" y="-14" height="28" width="28.0" class="key tap glyph mdi:lock"/>
</g>
<g transform="translate(760, 220)" class="key keypos-30">
<rect rx="4" ry="4" x="-38" y="-38" width="77" height="77" class="key"/>
<use href="#mdi:apple-keyboard-caps" xlink:href="#mdi:apple-keyboard-caps" x="-14" y="-14" height="28" width="28.0" class="key tap glyph mdi:apple-keyboard-caps"/>
</g>
<g transform="translate(840, 210)" class="key keypos-31">
<rect rx="4" ry="4" x="-38" y="-38" width="77" height="77" class="key"/>
<text x="0" y="0" class="key tap">=</text>
</g>
<g transform="translate(920, 200)" class="key keypos-32">
<rect rx="4" ry="4" x="-38" y="-38" width="77" height="77" class="key"/>
<text x="0" y="0" class="key tap">+</text>
</g>
<g transform="translate(1000, 210)" class="key keypos-33">
<rect rx="4" ry="4" x="-38" y="-38" width="77" height="77" class="key"/>
<text x="0" y="0" class="key tap">\</text>
</g>
<g transform="translate(1080, 230)" class="key keypos-34">
<rect rx="4" ry="4" x="-38" y="-38" width="77" height="77" class="key"/>
<text x="0" y="0" class="key tap">|</text>
</g>
<g transform="translate(1160, 230)" class="key keypos-35">
<rect rx="4" ry="4" x="-38" y="-38" width="77" height="77" class="key"/>
<use href="#mdi:keyboard-return" xlink:href="#mdi:keyboard-return" x="-14" y="-14" height="28" width="28.0" class="key tap glyph mdi:keyboard-return"/>
</g>
<g transform="translate(280, 288)" class="key keypos-36">
<rect rx="4" ry="4" x="-38" y="-38" width="77" height="77" class="key"/>
</g>
<g transform="translate(360, 300)" class="key keypos-37">
<rect rx="4" ry="4" x="-38" y="-38" width="77" height="77" class="key"/>
</g>
<g transform="translate(440, 312)" class="key keypos-38">
<rect rx="4" ry="4" x="-38" y="-38" width="77" height="77" class="key"/>
<use href="#mdi:keyboard-space" xlink:href="#mdi:keyboard-space" x="-14" y="-14" height="28" width="28.0" class="key tap glyph mdi:keyboard-space"/>
</g>
<g transform="translate(520, 324)" class="key keypos-39">
<rect rx="4" ry="4" x="-38" y="-38" width="77" height="77" class="key"/>
<text x="0" y="0" class="key tap"><tspan style="font-size: 75%">Base</tspan></text>
</g>
<g transform="translate(680, 324)" class="key keypos-40">
<rect rx="4" ry="4" x="-38" y="-38" width="77" height="77" class="key"/>
<text x="0" y="0" class="key tap"><tspan style="font-size: 75%">Game</tspan></text>
</g>
<g transform="translate(760, 312)" class="key keypos-41">
<rect rx="4" ry="4" x="-38" y="-38" width="77" height="77" class="key"/>
<text x="0" y="0" class="key tap">&quot;</text>
</g>
<g transform="translate(840, 300)" class="key keypos-42">
<rect rx="4" ry="4" x="-38" y="-38" width="77" height="77" class="key"/>
</g>
<g transform="translate(920, 288)" class="key keypos-43">
<rect rx="4" ry="4" x="-38" y="-38" width="77" height="77" class="key"/>
</g>
</g>
</g>
<g transform="translate(55, 778)" class="layer-Nav">
<text x="0" y="12" class="label">Nav</text>
<g transform="translate(0, 25)">
<g transform="translate(40, 70)" class="key keypos-0">
<rect rx="4" ry="4" x="-38" y="-38" width="77" height="77" class="key"/>
<use href="#mdi:brightness-6" xlink:href="#mdi:brightness-6" x="-14" y="-14" height="28" width="28.0" class="key tap glyph mdi:brightness-6"/>
</g>
<g transform="translate(120, 70)" class="key keypos-1">
<rect rx="4" ry="4" x="-38" y="-38" width="77" height="77" class="key"/>
<text x="0" y="0" class="key tap"><tspan style="font-size: 75%">Home</tspan></text>
</g>
<g transform="translate(200, 50)" class="key keypos-2">
<rect rx="4" ry="4" x="-38" y="-38" width="77" height="77" class="key"/>
<text x="0" y="0" class="key tap">
<tspan x="0" dy="-0.5em" style="font-size: 60%">Restore</tspan><tspan x="0" dy="1.0em" style="font-size: 60%">Tab</tspan>
</text>
</g>
<g transform="translate(280, 40)" class="key keypos-3">
<rect rx="4" ry="4" x="-38" y="-38" width="77" height="77" class="key"/>
<use href="#mdi:arrow-up-bold" xlink:href="#mdi:arrow-up-bold" x="-14" y="-14" height="28" width="28.0" class="key tap glyph mdi:arrow-up-bold"/>
</g>
<g transform="translate(360, 50)" class="key keypos-4">
<rect rx="4" ry="4" x="-38" y="-38" width="77" height="77" class="key"/>
<text x="0" y="0" class="key tap">
<tspan x="0" dy="-0.5em" style="font-size: 60%">Close</tspan><tspan x="0" dy="1.0em" style="font-size: 60%">Tab</tspan>
</text>
</g>
<g transform="translate(440, 60)" class="key keypos-5">
<rect rx="4" ry="4" x="-38" y="-38" width="77" height="77" class="key"/>
<text x="0" y="0" class="key tap"><tspan style="font-size: 75%">PgUp</tspan></text>
</g>
<g transform="translate(760, 60)" class="key keypos-6">
<rect rx="4" ry="4" x="-38" y="-38" width="77" height="77" class="key"/>
<text x="0" y="0" class="key tap">F1</text>
</g>
<g transform="translate(840, 50)" class="key keypos-7">
<rect rx="4" ry="4" x="-38" y="-38" width="77" height="77" class="key"/>
<text x="0" y="0" class="key tap">F2</text>
</g>
<g transform="translate(920, 40)" class="key keypos-8">
<rect rx="4" ry="4" x="-38" y="-38" width="77" height="77" class="key"/>
<text x="0" y="0" class="key tap">F3</text>
</g>
<g transform="translate(1000, 50)" class="key keypos-9">
<rect rx="4" ry="4" x="-38" y="-38" width="77" height="77" class="key"/>
<text x="0" y="0" class="key tap">F4</text>
</g>
<g transform="translate(1080, 70)" class="key keypos-10">
<rect rx="4" ry="4" x="-38" y="-38" width="77" height="77" class="key"/>
<text x="0" y="0" class="key tap">F5</text>
</g>
<g transform="translate(1160, 70)" class="key keypos-11">
<rect rx="4" ry="4" x="-38" y="-38" width="77" height="77" class="key"/>
<text x="0" y="0" class="key tap">-</text>
</g>
<g transform="translate(40, 150)" class="key keypos-12">
<rect rx="4" ry="4" x="-38" y="-38" width="77" height="77" class="key"/>
<use href="#mdi:backspace-outline" xlink:href="#mdi:backspace-outline" x="-14" y="-14" height="28" width="28.0" class="key tap glyph mdi:backspace-outline"/>
</g>
<g transform="translate(120, 150)" class="key keypos-13">
<rect rx="4" ry="4" x="-38" y="-38" width="77" height="77" class="key"/>
<text x="0" y="0" class="key tap"><tspan style="font-size: 75%">End‎</tspan></text>
</g>
<g transform="translate(200, 130)" class="key keypos-14">
<rect rx="4" ry="4" x="-38" y="-38" width="77" height="77" class="key"/>
<use href="#mdi:arrow-left-bold" xlink:href="#mdi:arrow-left-bold" x="-14" y="-14" height="28" width="28.0" class="key tap glyph mdi:arrow-left-bold"/>
</g>
<g transform="translate(280, 120)" class="key keypos-15">
<rect rx="4" ry="4" x="-38" y="-38" width="77" height="77" class="key"/>
<use href="#mdi:arrow-down-bold" xlink:href="#mdi:arrow-down-bold" x="-14" y="-14" height="28" width="28.0" class="key tap glyph mdi:arrow-down-bold"/>
</g>
<g transform="translate(360, 130)" class="key keypos-16">
<rect rx="4" ry="4" x="-38" y="-38" width="77" height="77" class="key"/>
<use href="#mdi:arrow-right-bold" xlink:href="#mdi:arrow-right-bold" x="-14" y="-14" height="28" width="28.0" class="key tap glyph mdi:arrow-right-bold"/>
</g>
<g transform="translate(440, 140)" class="key keypos-17">
<rect rx="4" ry="4" x="-38" y="-38" width="77" height="77" class="key"/>
<text x="0" y="0" class="key tap"><tspan style="font-size: 75%">PgDn</tspan></text>
</g>
<g transform="translate(760, 140)" class="key keypos-18">
<rect rx="4" ry="4" x="-38" y="-38" width="77" height="77" class="key"/>
<text x="0" y="0" class="key tap">F6</text>
</g>
<g transform="translate(840, 130)" class="key keypos-19">
<rect rx="4" ry="4" x="-38" y="-38" width="77" height="77" class="key"/>
<text x="0" y="0" class="key tap">F7</text>
</g>
<g transform="translate(920, 120)" class="key keypos-20">
<rect rx="4" ry="4" x="-38" y="-38" width="77" height="77" class="key"/>
<text x="0" y="0" class="key tap">F8</text>
</g>
<g transform="translate(1000, 130)" class="key keypos-21">
<rect rx="4" ry="4" x="-38" y="-38" width="77" height="77" class="key"/>
<text x="0" y="0" class="key tap">F9</text>
</g>
<g transform="translate(1080, 150)" class="key keypos-22">
<rect rx="4" ry="4" x="-38" y="-38" width="77" height="77" class="key"/>
<text x="0" y="0" class="key tap">F10</text>
</g>
<g transform="translate(1160, 150)" class="key keypos-23">
<rect rx="4" ry="4" x="-38" y="-38" width="77" height="77" class="key"/>
<text x="0" y="0" class="key tap">,</text>
</g>
<g transform="translate(40, 230)" class="key keypos-24">
<rect rx="4" ry="4" x="-38" y="-38" width="77" height="77" class="key"/>
<use href="#mdi:backspace-reverse-outline" xlink:href="#mdi:backspace-reverse-outline" x="-14" y="-14" height="28" width="28.0" class="key tap glyph mdi:backspace-reverse-outline"/>
<text x="0" y="32" class="key hold"><tspan style="font-size: 75%">Ctrl</tspan></text>
</g>
<g transform="translate(120, 230)" class="key keypos-25">
<rect rx="4" ry="4" x="-38" y="-38" width="77" height="77" class="key"/>
<use href="#mdi:chevron-double-up" xlink:href="#mdi:chevron-double-up" x="-14" y="-14" height="28" width="28.0" class="key tap glyph mdi:chevron-double-up"/>
</g>
<g transform="translate(200, 210)" class="key keypos-26">
<rect rx="4" ry="4" x="-38" y="-38" width="77" height="77" class="key"/>
<use href="#mdi:chevron-double-down" xlink:href="#mdi:chevron-double-down" x="-14" y="-14" height="28" width="28.0" class="key tap glyph mdi:chevron-double-down"/>
</g>
<g transform="translate(280, 200)" class="key keypos-27">
<rect rx="4" ry="4" x="-38" y="-38" width="77" height="77" class="key"/>
<use href="#mdi:mouse-right-click" xlink:href="#mdi:mouse-right-click" x="-14" y="-14" height="28" width="28.0" class="key tap glyph mdi:mouse-right-click"/>
</g>
<g transform="translate(360, 210)" class="key keypos-28">
<rect rx="4" ry="4" x="-38" y="-38" width="77" height="77" class="key"/>
<use href="#mdi:mouse-left-click" xlink:href="#mdi:mouse-left-click" x="-14" y="-14" height="28" width="28.0" class="key tap glyph mdi:mouse-left-click"/>
</g>
<g transform="translate(440, 220)" class="key keypos-29">
<rect rx="4" ry="4" x="-38" y="-38" width="77" height="77" class="key"/>
<use href="#mdi:printer" xlink:href="#mdi:printer" x="-14" y="-14" height="28" width="28.0" class="key tap glyph mdi:printer"/>
</g>
<g transform="translate(760, 220)" class="key keypos-30">
<rect rx="4" ry="4" x="-38" y="-38" width="77" height="77" class="key"/>
<text x="0" y="0" class="key tap">F11</text>
</g>
<g transform="translate(840, 210)" class="key keypos-31">
<rect rx="4" ry="4" x="-38" y="-38" width="77" height="77" class="key"/>
<text x="0" y="0" class="key tap">F12</text>
</g>
<g transform="translate(920, 200)" class="key keypos-32">
<rect rx="4" ry="4" x="-38" y="-38" width="77" height="77" class="key"/>
<text x="0" y="0" class="key tap">.</text>
</g>
<g transform="translate(1000, 210)" class="key keypos-33">
<rect rx="4" ry="4" x="-38" y="-38" width="77" height="77" class="key"/>
<text x="0" y="0" class="key tap">&#x27;</text>
</g>
<g transform="translate(1080, 230)" class="key keypos-34">
<rect rx="4" ry="4" x="-38" y="-38" width="77" height="77" class="key"/>
<text x="0" y="0" class="key tap">;</text>
</g>
<g transform="translate(1160, 230)" class="key keypos-35">
<rect rx="4" ry="4" x="-38" y="-38" width="77" height="77" class="key"/>
<use href="#mdi:keyboard-return" xlink:href="#mdi:keyboard-return" x="-14" y="-14" height="28" width="28.0" class="key tap glyph mdi:keyboard-return"/>
</g>
<g transform="translate(280, 288)" class="key keypos-36">
<rect rx="4" ry="4" x="-38" y="-38" width="77" height="77" class="key"/>
</g>
<g transform="translate(360, 300)" class="key keypos-37">
<rect rx="4" ry="4" x="-38" y="-38" width="77" height="77" class="key"/>
</g>
<g transform="translate(440, 312)" class="key keypos-38">
<rect rx="4" ry="4" x="-38" y="-38" width="77" height="77" class="key"/>
<use href="#mdi:keyboard-space" xlink:href="#mdi:keyboard-space" x="-14" y="-14" height="28" width="28.0" class="key tap glyph mdi:keyboard-space"/>
<use href="#mdi:microsoft-windows" xlink:href="#mdi:microsoft-windows" x="-9" y="14" height="18" width="18.0" class="key hold glyph mdi:microsoft-windows"/>
</g>
<g transform="translate(520, 324)" class="key keypos-39">
<rect rx="4" ry="4" x="-38" y="-38" width="77" height="77" class="key"/>
<text x="0" y="0" class="key tap"><tspan style="font-size: 75%">Base</tspan></text>
</g>
<g transform="translate(680, 324)" class="key keypos-40">
<rect rx="4" ry="4" x="-38" y="-38" width="77" height="77" class="key"/>
<text x="0" y="0" class="key tap"><tspan style="font-size: 75%">Game</tspan></text>
</g>
<g transform="translate(760, 312)" class="key keypos-41">
<rect rx="4" ry="4" x="-38" y="-38" width="77" height="77" class="key"/>
<use href="#mdi:apple-keyboard-shift" xlink:href="#mdi:apple-keyboard-shift" x="-14" y="-14" height="28" width="28.0" class="key tap glyph mdi:apple-keyboard-shift"/>
</g>
<g transform="translate(840, 300)" class="key keypos-42">
<rect rx="4" ry="4" x="-38" y="-38" width="77" height="77" class="key"/>
</g>
<g transform="translate(920, 288)" class="key keypos-43">
<rect rx="4" ry="4" x="-38" y="-38" width="77" height="77" class="key"/>
</g>
</g>
</g>
<g transform="translate(55, 1167)" class="layer-Game">
<text x="0" y="12" class="label">Game</text>
<g transform="translate(0, 25)">
<g transform="translate(40, 70)" class="key keypos-0">
<rect rx="4" ry="4" x="-38" y="-38" width="77" height="77" class="key"/>
<use href="#mdi:keyboard-tab" xlink:href="#mdi:keyboard-tab" x="-14" y="-14" height="28" width="28.0" class="key tap glyph mdi:keyboard-tab"/>
</g>
<g transform="translate(120, 70)" class="key keypos-1">
<rect rx="4" ry="4" x="-38" y="-38" width="77" height="77" class="key"/>
<text x="0" y="0" class="key tap">Q</text>
</g>
<g transform="translate(200, 50)" class="key keypos-2">
<rect rx="4" ry="4" x="-38" y="-38" width="77" height="77" class="key"/>
<text x="0" y="0" class="key tap">W</text>
</g>
<g transform="translate(280, 40)" class="key keypos-3">
<rect rx="4" ry="4" x="-38" y="-38" width="77" height="77" class="key"/>
<text x="0" y="0" class="key tap">E</text>
</g>
<g transform="translate(360, 50)" class="key keypos-4">
<rect rx="4" ry="4" x="-38" y="-38" width="77" height="77" class="key"/>
<text x="0" y="0" class="key tap">R</text>
</g>
<g transform="translate(440, 60)" class="key keypos-5">
<rect rx="4" ry="4" x="-38" y="-38" width="77" height="77" class="key"/>
<text x="0" y="0" class="key tap">T</text>
</g>
<g transform="translate(760, 60)" class="key keypos-6">
<rect rx="4" ry="4" x="-38" y="-38" width="77" height="77" class="key"/>
<text x="0" y="0" class="key tap">Y</text>
</g>
<g transform="translate(840, 50)" class="key keypos-7">
<rect rx="4" ry="4" x="-38" y="-38" width="77" height="77" class="key"/>
<text x="0" y="0" class="key tap">U</text>
</g>
<g transform="translate(920, 40)" class="key keypos-8">
<rect rx="4" ry="4" x="-38" y="-38" width="77" height="77" class="key"/>
<text x="0" y="0" class="key tap">I</text>
</g>
<g transform="translate(1000, 50)" class="key keypos-9">
<rect rx="4" ry="4" x="-38" y="-38" width="77" height="77" class="key"/>
<text x="0" y="0" class="key tap">O</text>
</g>
<g transform="translate(1080, 70)" class="key keypos-10">
<rect rx="4" ry="4" x="-38" y="-38" width="77" height="77" class="key"/>
<text x="0" y="0" class="key tap">P</text>
</g>
<g transform="translate(1160, 70)" class="key keypos-11">
<rect rx="4" ry="4" x="-38" y="-38" width="77" height="77" class="key"/>
<text x="0" y="0" class="key tap">-</text>
</g>
<g transform="translate(40, 150)" class="key keypos-12">
<rect rx="4" ry="4" x="-38" y="-38" width="77" height="77" class="key"/>
<use href="#mdi:apple-keyboard-shift" xlink:href="#mdi:apple-keyboard-shift" x="-14" y="-14" height="28" width="28.0" class="key tap glyph mdi:apple-keyboard-shift"/>
</g>
<g transform="translate(120, 150)" class="key keypos-13">
<rect rx="4" ry="4" x="-38" y="-38" width="77" height="77" class="key"/>
<text x="0" y="0" class="key tap">A</text>
</g>
<g transform="translate(200, 130)" class="key keypos-14">
<rect rx="4" ry="4" x="-38" y="-38" width="77" height="77" class="key"/>
<text x="0" y="0" class="key tap">S</text>
</g>
<g transform="translate(280, 120)" class="key keypos-15">
<rect rx="4" ry="4" x="-38" y="-38" width="77" height="77" class="key"/>
<text x="0" y="0" class="key tap">D</text>
</g>
<g transform="translate(360, 130)" class="key keypos-16">
<rect rx="4" ry="4" x="-38" y="-38" width="77" height="77" class="key"/>
<text x="0" y="0" class="key tap">F</text>
</g>
<g transform="translate(440, 140)" class="key keypos-17">
<rect rx="4" ry="4" x="-38" y="-38" width="77" height="77" class="key"/>
<text x="0" y="0" class="key tap">G</text>
</g>
<g transform="translate(760, 140)" class="key keypos-18">
<rect rx="4" ry="4" x="-38" y="-38" width="77" height="77" class="key"/>
<text x="0" y="0" class="key tap">H</text>
</g>
<g transform="translate(840, 130)" class="key keypos-19">
<rect rx="4" ry="4" x="-38" y="-38" width="77" height="77" class="key"/>
<text x="0" y="0" class="key tap">J</text>
</g>
<g transform="translate(920, 120)" class="key keypos-20">
<rect rx="4" ry="4" x="-38" y="-38" width="77" height="77" class="key"/>
<text x="0" y="0" class="key tap">K</text>
</g>
<g transform="translate(1000, 130)" class="key keypos-21">
<rect rx="4" ry="4" x="-38" y="-38" width="77" height="77" class="key"/>
<text x="0" y="0" class="key tap">L</text>
</g>
<g transform="translate(1080, 150)" class="key keypos-22">
<rect rx="4" ry="4" x="-38" y="-38" width="77" height="77" class="key"/>
<text x="0" y="0" class="key tap">;</text>
</g>
<g transform="translate(1160, 150)" class="key keypos-23">
<rect rx="4" ry="4" x="-38" y="-38" width="77" height="77" class="key"/>
<text x="0" y="0" class="key tap">&#x27;</text>
</g>
<g transform="translate(40, 230)" class="key keypos-24">
<rect rx="4" ry="4" x="-38" y="-38" width="77" height="77" class="key"/>
<text x="0" y="0" class="key tap"><tspan style="font-size: 75%">Ctrl</tspan></text>
</g>
<g transform="translate(120, 230)" class="key keypos-25">
<rect rx="4" ry="4" x="-38" y="-38" width="77" height="77" class="key"/>
<text x="0" y="0" class="key tap">Z</text>
</g>
<g transform="translate(200, 210)" class="key keypos-26">
<rect rx="4" ry="4" x="-38" y="-38" width="77" height="77" class="key"/>
<text x="0" y="0" class="key tap">X</text>
</g>
<g transform="translate(280, 200)" class="key keypos-27">
<rect rx="4" ry="4" x="-38" y="-38" width="77" height="77" class="key"/>
<text x="0" y="0" class="key tap">C</text>
</g>
<g transform="translate(360, 210)" class="key keypos-28">
<rect rx="4" ry="4" x="-38" y="-38" width="77" height="77" class="key"/>
<text x="0" y="0" class="key tap">V</text>
</g>
<g transform="translate(440, 220)" class="key keypos-29">
<rect rx="4" ry="4" x="-38" y="-38" width="77" height="77" class="key"/>
<text x="0" y="0" class="key tap">B</text>
</g>
<g transform="translate(760, 220)" class="key keypos-30">
<rect rx="4" ry="4" x="-38" y="-38" width="77" height="77" class="key"/>
<text x="0" y="0" class="key tap">N</text>
</g>
<g transform="translate(840, 210)" class="key keypos-31">
<rect rx="4" ry="4" x="-38" y="-38" width="77" height="77" class="key"/>
<text x="0" y="0" class="key tap">M</text>
</g>
<g transform="translate(920, 200)" class="key keypos-32">
<rect rx="4" ry="4" x="-38" y="-38" width="77" height="77" class="key"/>
<text x="0" y="0" class="key tap">,</text>
</g>
<g transform="translate(1000, 210)" class="key keypos-33">
<rect rx="4" ry="4" x="-38" y="-38" width="77" height="77" class="key"/>
<text x="0" y="0" class="key tap">.</text>
</g>
<g transform="translate(1080, 230)" class="key keypos-34">
<rect rx="4" ry="4" x="-38" y="-38" width="77" height="77" class="key"/>
<text x="0" y="0" class="key tap">/</text>
</g>
<g transform="translate(1160, 230)" class="key keypos-35">
<rect rx="4" ry="4" x="-38" y="-38" width="77" height="77" class="key"/>
<use href="#mdi:keyboard-return" xlink:href="#mdi:keyboard-return" x="-14" y="-14" height="28" width="28.0" class="key tap glyph mdi:keyboard-return"/>
</g>
<g transform="translate(280, 288)" class="key keypos-36">
<rect rx="4" ry="4" x="-38" y="-38" width="77" height="77" class="key"/>
</g>
<g transform="translate(360, 300)" class="key keypos-37">
<rect rx="4" ry="4" x="-38" y="-38" width="77" height="77" class="key"/>
</g>
<g transform="translate(440, 312)" class="key keypos-38">
<rect rx="4" ry="4" x="-38" y="-38" width="77" height="77" class="key"/>
<use href="#mdi:keyboard-space" xlink:href="#mdi:keyboard-space" x="-14" y="-14" height="28" width="28.0" class="key tap glyph mdi:keyboard-space"/>
</g>
<g transform="translate(520, 324)" class="key keypos-39">
<rect rx="4" ry="4" x="-38" y="-38" width="77" height="77" class="key"/>
<text x="0" y="0" class="key tap"><tspan style="font-size: 75%">Sym‎</tspan></text>
</g>
<g transform="translate(680, 324)" class="key keypos-40">
<rect rx="4" ry="4" x="-38" y="-38" width="77" height="77" class="key"/>
<text x="0" y="0" class="key tap"><tspan style="font-size: 75%">Nav‎</tspan></text>
</g>
<g transform="translate(760, 312)" class="key keypos-41">
<rect rx="4" ry="4" x="-38" y="-38" width="77" height="77" class="key"/>
<use href="#mdi:backspace-outline" xlink:href="#mdi:backspace-outline" x="-14" y="-14" height="28" width="28.0" class="key tap glyph mdi:backspace-outline"/>
</g>
<g transform="translate(840, 300)" class="key keypos-42">
<rect rx="4" ry="4" x="-38" y="-38" width="77" height="77" class="key"/>
</g>
<g transform="translate(920, 288)" class="key keypos-43">
<rect rx="4" ry="4" x="-38" y="-38" width="77" height="77" class="key"/>
</g>
</g>
</g>
</svg>
